<mxfile host="app.diagrams.net" modified="2020-11-02T11:04:30.148Z" agent="5.0 (Windows NT 10.0; Win64; x64) AppleWebKit/537.36 (KHTML, like Gecko) Chrome/86.0.4240.111 Safari/537.36" etag="g4BMvIeBgYN03-HScwK6" version="13.8.3" type="github">
  <diagram id="h-P76ZHEpocvevLLXfD2" name="Page-1">
    <mxGraphModel dx="1102" dy="1751" grid="1" gridSize="10" guides="1" tooltips="1" connect="1" arrows="1" fold="1" page="1" pageScale="1" pageWidth="827" pageHeight="1169" math="0" shadow="0">
      <root>
        <mxCell id="0" />
        <mxCell id="1" parent="0" />
        <mxCell id="olscZ186BBC422VOPhtg-288" value="ETCD" style="shape=cylinder3;whiteSpace=wrap;html=1;boundedLbl=1;backgroundOutline=1;size=15;" vertex="1" parent="1">
          <mxGeometry x="431" y="841" width="110" height="70" as="geometry" />
        </mxCell>
        <mxCell id="olscZ186BBC422VOPhtg-66" value="" style="rounded=0;whiteSpace=wrap;html=1;" vertex="1" parent="1">
          <mxGeometry x="50" y="240" width="535" height="330" as="geometry" />
        </mxCell>
        <mxCell id="olscZ186BBC422VOPhtg-41" value="" style="group" vertex="1" connectable="0" parent="1">
          <mxGeometry x="73" y="370" width="75" height="90" as="geometry" />
        </mxCell>
        <mxCell id="olscZ186BBC422VOPhtg-42" value="VPP-Agent" style="rounded=1;whiteSpace=wrap;html=1;" vertex="1" parent="olscZ186BBC422VOPhtg-41">
          <mxGeometry width="75" height="90" as="geometry" />
        </mxCell>
        <mxCell id="olscZ186BBC422VOPhtg-43" value="VPP1" style="text;html=1;strokeColor=none;fillColor=none;align=center;verticalAlign=middle;whiteSpace=wrap;rounded=0;" vertex="1" parent="olscZ186BBC422VOPhtg-41">
          <mxGeometry x="20.833333333333336" y="6" width="33.333333333333336" height="12" as="geometry" />
        </mxCell>
        <mxCell id="olscZ186BBC422VOPhtg-44" value="Pod1" style="text;html=1;strokeColor=none;fillColor=none;align=center;verticalAlign=middle;whiteSpace=wrap;rounded=0;" vertex="1" parent="olscZ186BBC422VOPhtg-41">
          <mxGeometry x="20.833333333333336" y="77.4" width="33.333333333333336" height="12" as="geometry" />
        </mxCell>
        <mxCell id="olscZ186BBC422VOPhtg-45" value="" style="group" vertex="1" connectable="0" parent="1">
          <mxGeometry x="212.5" y="370" width="75" height="90" as="geometry" />
        </mxCell>
        <mxCell id="olscZ186BBC422VOPhtg-46" value="VPP-Agent" style="rounded=1;whiteSpace=wrap;html=1;" vertex="1" parent="olscZ186BBC422VOPhtg-45">
          <mxGeometry width="75" height="90" as="geometry" />
        </mxCell>
        <mxCell id="olscZ186BBC422VOPhtg-47" value="VPP2" style="text;html=1;strokeColor=none;fillColor=none;align=center;verticalAlign=middle;whiteSpace=wrap;rounded=0;" vertex="1" parent="olscZ186BBC422VOPhtg-45">
          <mxGeometry x="20.833333333333336" y="6" width="33.333333333333336" height="12" as="geometry" />
        </mxCell>
        <mxCell id="olscZ186BBC422VOPhtg-48" value="Pod2" style="text;html=1;strokeColor=none;fillColor=none;align=center;verticalAlign=middle;whiteSpace=wrap;rounded=0;" vertex="1" parent="olscZ186BBC422VOPhtg-45">
          <mxGeometry x="20.833333333333336" y="77.39999999999999" width="33.333333333333336" height="12" as="geometry" />
        </mxCell>
        <mxCell id="olscZ186BBC422VOPhtg-49" value="" style="group" vertex="1" connectable="0" parent="1">
          <mxGeometry x="353" y="370" width="75" height="90" as="geometry" />
        </mxCell>
        <mxCell id="olscZ186BBC422VOPhtg-50" value="VPP-Agent" style="rounded=1;whiteSpace=wrap;html=1;" vertex="1" parent="olscZ186BBC422VOPhtg-49">
          <mxGeometry width="75" height="90" as="geometry" />
        </mxCell>
        <mxCell id="olscZ186BBC422VOPhtg-51" value="VPP3" style="text;html=1;strokeColor=none;fillColor=none;align=center;verticalAlign=middle;whiteSpace=wrap;rounded=0;" vertex="1" parent="olscZ186BBC422VOPhtg-49">
          <mxGeometry x="20.833333333333336" y="6" width="33.333333333333336" height="12" as="geometry" />
        </mxCell>
        <mxCell id="olscZ186BBC422VOPhtg-52" value="Pod3" style="text;html=1;strokeColor=none;fillColor=none;align=center;verticalAlign=middle;whiteSpace=wrap;rounded=0;" vertex="1" parent="olscZ186BBC422VOPhtg-49">
          <mxGeometry x="20.833333333333336" y="77.39999999999999" width="33.333333333333336" height="12" as="geometry" />
        </mxCell>
        <mxCell id="olscZ186BBC422VOPhtg-54" value="Contiv-vpp" style="rounded=1;whiteSpace=wrap;html=1;" vertex="1" parent="1">
          <mxGeometry x="65" y="490" width="370" height="60" as="geometry" />
        </mxCell>
        <mxCell id="olscZ186BBC422VOPhtg-55" value="" style="curved=1;endArrow=none;html=1;entryX=0.186;entryY=0;entryDx=0;entryDy=0;entryPerimeter=0;exitX=0.5;exitY=1;exitDx=0;exitDy=0;endFill=0;" edge="1" parent="1" source="olscZ186BBC422VOPhtg-42" target="olscZ186BBC422VOPhtg-54">
          <mxGeometry x="50" y="310" width="50" height="50" as="geometry">
            <mxPoint x="110" y="470" as="sourcePoint" />
            <mxPoint x="125" y="630" as="targetPoint" />
            <Array as="points">
              <mxPoint x="110" y="480" />
            </Array>
          </mxGeometry>
        </mxCell>
        <mxCell id="olscZ186BBC422VOPhtg-56" value="" style="curved=1;endArrow=none;html=1;entryX=0.819;entryY=0.014;entryDx=0;entryDy=0;entryPerimeter=0;exitX=0.5;exitY=1;exitDx=0;exitDy=0;endFill=0;" edge="1" parent="1" source="olscZ186BBC422VOPhtg-50" target="olscZ186BBC422VOPhtg-54">
          <mxGeometry x="50" y="310" width="50" height="50" as="geometry">
            <mxPoint x="385" y="460" as="sourcePoint" />
            <mxPoint x="408.81999999999994" y="500" as="targetPoint" />
            <Array as="points">
              <mxPoint x="390" y="480" />
            </Array>
          </mxGeometry>
        </mxCell>
        <mxCell id="olscZ186BBC422VOPhtg-57" style="edgeStyle=orthogonalEdgeStyle;curved=1;rounded=0;orthogonalLoop=1;jettySize=auto;html=1;entryX=0.5;entryY=0;entryDx=0;entryDy=0;exitX=0.5;exitY=1;exitDx=0;exitDy=0;endArrow=none;endFill=0;" edge="1" parent="1" source="olscZ186BBC422VOPhtg-46" target="olscZ186BBC422VOPhtg-54">
          <mxGeometry x="50" y="310" as="geometry">
            <mxPoint x="250" y="459" as="sourcePoint" />
          </mxGeometry>
        </mxCell>
        <mxCell id="olscZ186BBC422VOPhtg-58" value="" style="group" vertex="1" connectable="0" parent="1">
          <mxGeometry x="485" y="370" width="85" height="180" as="geometry" />
        </mxCell>
        <mxCell id="olscZ186BBC422VOPhtg-59" value="ETCD" style="rounded=1;whiteSpace=wrap;html=1;" vertex="1" parent="olscZ186BBC422VOPhtg-58">
          <mxGeometry y="-1" width="85" height="180" as="geometry" />
        </mxCell>
        <mxCell id="olscZ186BBC422VOPhtg-60" value="Pod4" style="text;html=1;strokeColor=none;fillColor=none;align=center;verticalAlign=middle;whiteSpace=wrap;rounded=0;" vertex="1" parent="olscZ186BBC422VOPhtg-58">
          <mxGeometry x="23.61111111111111" y="154.79999999999998" width="37.77777777777778" height="24" as="geometry" />
        </mxCell>
        <mxCell id="olscZ186BBC422VOPhtg-61" style="edgeStyle=orthogonalEdgeStyle;curved=1;rounded=0;orthogonalLoop=1;jettySize=auto;html=1;exitX=0.5;exitY=0;exitDx=0;exitDy=0;entryX=0.5;entryY=0;entryDx=0;entryDy=0;endArrow=none;endFill=0;" edge="1" parent="1" source="olscZ186BBC422VOPhtg-50" target="olscZ186BBC422VOPhtg-59">
          <mxGeometry x="50" y="310" as="geometry" />
        </mxCell>
        <mxCell id="olscZ186BBC422VOPhtg-94" style="edgeStyle=orthogonalEdgeStyle;curved=1;rounded=0;orthogonalLoop=1;jettySize=auto;html=1;exitX=0.5;exitY=0;exitDx=0;exitDy=0;entryX=0.5;entryY=0;entryDx=0;entryDy=0;endArrow=none;endFill=0;" edge="1" parent="1" source="olscZ186BBC422VOPhtg-46" target="olscZ186BBC422VOPhtg-59">
          <mxGeometry x="50" y="310" as="geometry">
            <Array as="points">
              <mxPoint x="250" y="340" />
              <mxPoint x="528" y="340" />
            </Array>
          </mxGeometry>
        </mxCell>
        <mxCell id="olscZ186BBC422VOPhtg-93" style="edgeStyle=orthogonalEdgeStyle;curved=1;rounded=0;orthogonalLoop=1;jettySize=auto;html=1;exitX=1;exitY=0.5;exitDx=0;exitDy=0;entryX=0;entryY=0.839;entryDx=0;entryDy=0;entryPerimeter=0;endArrow=none;endFill=0;" edge="1" parent="1" source="olscZ186BBC422VOPhtg-54" target="olscZ186BBC422VOPhtg-59">
          <mxGeometry x="50" y="310" as="geometry" />
        </mxCell>
        <mxCell id="olscZ186BBC422VOPhtg-95" style="edgeStyle=orthogonalEdgeStyle;curved=1;rounded=0;orthogonalLoop=1;jettySize=auto;html=1;exitX=0.5;exitY=0;exitDx=0;exitDy=0;endArrow=none;endFill=0;entryX=0.5;entryY=0;entryDx=0;entryDy=0;" edge="1" parent="1" source="olscZ186BBC422VOPhtg-42" target="olscZ186BBC422VOPhtg-59">
          <mxGeometry x="50" y="310" as="geometry">
            <mxPoint x="280" y="270" as="targetPoint" />
            <Array as="points">
              <mxPoint x="111" y="330" />
              <mxPoint x="528" y="330" />
            </Array>
          </mxGeometry>
        </mxCell>
        <mxCell id="olscZ186BBC422VOPhtg-152" value="kubelet" style="rounded=1;whiteSpace=wrap;html=1;" vertex="1" parent="1">
          <mxGeometry x="428" y="250" width="120" height="40" as="geometry" />
        </mxCell>
        <mxCell id="olscZ186BBC422VOPhtg-286" style="rounded=0;orthogonalLoop=1;jettySize=auto;html=1;exitX=0.5;exitY=1;exitDx=0;exitDy=0;exitPerimeter=0;endArrow=none;endFill=0;" edge="1" parent="1" source="olscZ186BBC422VOPhtg-146" target="olscZ186BBC422VOPhtg-152">
          <mxGeometry relative="1" as="geometry" />
        </mxCell>
        <mxCell id="olscZ186BBC422VOPhtg-146" value="ETCD" style="shape=cylinder3;whiteSpace=wrap;html=1;boundedLbl=1;backgroundOutline=1;size=15;" vertex="1" parent="1">
          <mxGeometry x="560" y="120" width="110" height="70" as="geometry" />
        </mxCell>
        <mxCell id="olscZ186BBC422VOPhtg-148" value="Controller Manager" style="rounded=1;whiteSpace=wrap;html=1;" vertex="1" parent="1">
          <mxGeometry x="640" y="-40" width="120" height="41" as="geometry" />
        </mxCell>
        <mxCell id="olscZ186BBC422VOPhtg-149" value="Kube-Scheduler" style="rounded=1;whiteSpace=wrap;html=1;" vertex="1" parent="1">
          <mxGeometry x="640" y="21" width="120" height="41" as="geometry" />
        </mxCell>
        <mxCell id="olscZ186BBC422VOPhtg-150" value="Contiv-VPP Netmaster" style="rounded=1;whiteSpace=wrap;html=1;" vertex="1" parent="1">
          <mxGeometry x="500" y="21" width="120" height="41" as="geometry" />
        </mxCell>
        <mxCell id="olscZ186BBC422VOPhtg-151" value="API-Server" style="rounded=1;whiteSpace=wrap;html=1;" vertex="1" parent="1">
          <mxGeometry x="500" y="-40" width="120" height="41" as="geometry" />
        </mxCell>
        <mxCell id="olscZ186BBC422VOPhtg-155" value="" style="rounded=0;whiteSpace=wrap;html=1;" vertex="1" parent="1">
          <mxGeometry x="660" y="240" width="535" height="330" as="geometry" />
        </mxCell>
        <mxCell id="olscZ186BBC422VOPhtg-156" value="" style="group" vertex="1" connectable="0" parent="1">
          <mxGeometry x="683" y="370" width="75" height="90" as="geometry" />
        </mxCell>
        <mxCell id="olscZ186BBC422VOPhtg-157" value="VPP-Agent" style="rounded=1;whiteSpace=wrap;html=1;" vertex="1" parent="olscZ186BBC422VOPhtg-156">
          <mxGeometry width="75" height="90" as="geometry" />
        </mxCell>
        <mxCell id="olscZ186BBC422VOPhtg-158" value="VPP1" style="text;html=1;strokeColor=none;fillColor=none;align=center;verticalAlign=middle;whiteSpace=wrap;rounded=0;" vertex="1" parent="olscZ186BBC422VOPhtg-156">
          <mxGeometry x="20.833333333333336" y="6" width="33.333333333333336" height="12" as="geometry" />
        </mxCell>
        <mxCell id="olscZ186BBC422VOPhtg-159" value="Pod1" style="text;html=1;strokeColor=none;fillColor=none;align=center;verticalAlign=middle;whiteSpace=wrap;rounded=0;" vertex="1" parent="olscZ186BBC422VOPhtg-156">
          <mxGeometry x="20.833333333333336" y="77.4" width="33.333333333333336" height="12" as="geometry" />
        </mxCell>
        <mxCell id="olscZ186BBC422VOPhtg-160" value="" style="group" vertex="1" connectable="0" parent="1">
          <mxGeometry x="822.5" y="370" width="75" height="90" as="geometry" />
        </mxCell>
        <mxCell id="olscZ186BBC422VOPhtg-161" value="VPP-Agent" style="rounded=1;whiteSpace=wrap;html=1;" vertex="1" parent="olscZ186BBC422VOPhtg-160">
          <mxGeometry width="75" height="90" as="geometry" />
        </mxCell>
        <mxCell id="olscZ186BBC422VOPhtg-162" value="VPP2" style="text;html=1;strokeColor=none;fillColor=none;align=center;verticalAlign=middle;whiteSpace=wrap;rounded=0;" vertex="1" parent="olscZ186BBC422VOPhtg-160">
          <mxGeometry x="20.833333333333336" y="6" width="33.333333333333336" height="12" as="geometry" />
        </mxCell>
        <mxCell id="olscZ186BBC422VOPhtg-163" value="Pod2" style="text;html=1;strokeColor=none;fillColor=none;align=center;verticalAlign=middle;whiteSpace=wrap;rounded=0;" vertex="1" parent="olscZ186BBC422VOPhtg-160">
          <mxGeometry x="20.833333333333336" y="77.39999999999999" width="33.333333333333336" height="12" as="geometry" />
        </mxCell>
        <mxCell id="olscZ186BBC422VOPhtg-164" value="" style="group" vertex="1" connectable="0" parent="1">
          <mxGeometry x="963" y="370" width="75" height="90" as="geometry" />
        </mxCell>
        <mxCell id="olscZ186BBC422VOPhtg-165" value="VPP-Agent" style="rounded=1;whiteSpace=wrap;html=1;" vertex="1" parent="olscZ186BBC422VOPhtg-164">
          <mxGeometry width="75" height="90" as="geometry" />
        </mxCell>
        <mxCell id="olscZ186BBC422VOPhtg-166" value="VPP3" style="text;html=1;strokeColor=none;fillColor=none;align=center;verticalAlign=middle;whiteSpace=wrap;rounded=0;" vertex="1" parent="olscZ186BBC422VOPhtg-164">
          <mxGeometry x="20.833333333333336" y="6" width="33.333333333333336" height="12" as="geometry" />
        </mxCell>
        <mxCell id="olscZ186BBC422VOPhtg-167" value="Pod3" style="text;html=1;strokeColor=none;fillColor=none;align=center;verticalAlign=middle;whiteSpace=wrap;rounded=0;" vertex="1" parent="olscZ186BBC422VOPhtg-164">
          <mxGeometry x="20.833333333333336" y="77.39999999999999" width="33.333333333333336" height="12" as="geometry" />
        </mxCell>
        <mxCell id="olscZ186BBC422VOPhtg-168" value="Contiv-vpp" style="rounded=1;whiteSpace=wrap;html=1;" vertex="1" parent="1">
          <mxGeometry x="675" y="490" width="370" height="60" as="geometry" />
        </mxCell>
        <mxCell id="olscZ186BBC422VOPhtg-169" value="" style="curved=1;endArrow=none;html=1;entryX=0.186;entryY=0;entryDx=0;entryDy=0;entryPerimeter=0;exitX=0.5;exitY=1;exitDx=0;exitDy=0;endFill=0;" edge="1" parent="1" source="olscZ186BBC422VOPhtg-157" target="olscZ186BBC422VOPhtg-168">
          <mxGeometry x="660" y="310" width="50" height="50" as="geometry">
            <mxPoint x="720" y="470" as="sourcePoint" />
            <mxPoint x="735" y="630" as="targetPoint" />
            <Array as="points">
              <mxPoint x="720" y="480" />
            </Array>
          </mxGeometry>
        </mxCell>
        <mxCell id="olscZ186BBC422VOPhtg-170" value="" style="curved=1;endArrow=none;html=1;entryX=0.819;entryY=0.014;entryDx=0;entryDy=0;entryPerimeter=0;exitX=0.5;exitY=1;exitDx=0;exitDy=0;endFill=0;" edge="1" parent="1" source="olscZ186BBC422VOPhtg-165" target="olscZ186BBC422VOPhtg-168">
          <mxGeometry x="660" y="310" width="50" height="50" as="geometry">
            <mxPoint x="995" y="460" as="sourcePoint" />
            <mxPoint x="1018.8199999999999" y="500" as="targetPoint" />
            <Array as="points">
              <mxPoint x="1000" y="480" />
            </Array>
          </mxGeometry>
        </mxCell>
        <mxCell id="olscZ186BBC422VOPhtg-171" style="edgeStyle=orthogonalEdgeStyle;curved=1;rounded=0;orthogonalLoop=1;jettySize=auto;html=1;entryX=0.5;entryY=0;entryDx=0;entryDy=0;exitX=0.5;exitY=1;exitDx=0;exitDy=0;endArrow=none;endFill=0;" edge="1" parent="1" source="olscZ186BBC422VOPhtg-161" target="olscZ186BBC422VOPhtg-168">
          <mxGeometry x="660" y="310" as="geometry">
            <mxPoint x="860" y="459" as="sourcePoint" />
          </mxGeometry>
        </mxCell>
        <mxCell id="olscZ186BBC422VOPhtg-172" value="" style="group" vertex="1" connectable="0" parent="1">
          <mxGeometry x="1095" y="370" width="85" height="180" as="geometry" />
        </mxCell>
        <mxCell id="olscZ186BBC422VOPhtg-173" value="ETCD" style="rounded=1;whiteSpace=wrap;html=1;" vertex="1" parent="olscZ186BBC422VOPhtg-172">
          <mxGeometry y="-1" width="85" height="180" as="geometry" />
        </mxCell>
        <mxCell id="olscZ186BBC422VOPhtg-174" value="Pod4" style="text;html=1;strokeColor=none;fillColor=none;align=center;verticalAlign=middle;whiteSpace=wrap;rounded=0;" vertex="1" parent="olscZ186BBC422VOPhtg-172">
          <mxGeometry x="23.61111111111111" y="154.79999999999998" width="37.77777777777778" height="24" as="geometry" />
        </mxCell>
        <mxCell id="olscZ186BBC422VOPhtg-175" style="edgeStyle=orthogonalEdgeStyle;curved=1;rounded=0;orthogonalLoop=1;jettySize=auto;html=1;exitX=0.5;exitY=0;exitDx=0;exitDy=0;entryX=0.5;entryY=0;entryDx=0;entryDy=0;endArrow=none;endFill=0;" edge="1" parent="1" source="olscZ186BBC422VOPhtg-165" target="olscZ186BBC422VOPhtg-173">
          <mxGeometry x="660" y="310" as="geometry" />
        </mxCell>
        <mxCell id="olscZ186BBC422VOPhtg-176" style="edgeStyle=orthogonalEdgeStyle;curved=1;rounded=0;orthogonalLoop=1;jettySize=auto;html=1;exitX=0.5;exitY=0;exitDx=0;exitDy=0;entryX=0.5;entryY=0;entryDx=0;entryDy=0;endArrow=none;endFill=0;" edge="1" parent="1" source="olscZ186BBC422VOPhtg-161" target="olscZ186BBC422VOPhtg-173">
          <mxGeometry x="660" y="310" as="geometry">
            <Array as="points">
              <mxPoint x="860" y="340" />
              <mxPoint x="1138" y="340" />
            </Array>
          </mxGeometry>
        </mxCell>
        <mxCell id="olscZ186BBC422VOPhtg-177" style="edgeStyle=orthogonalEdgeStyle;curved=1;rounded=0;orthogonalLoop=1;jettySize=auto;html=1;exitX=1;exitY=0.5;exitDx=0;exitDy=0;entryX=0;entryY=0.839;entryDx=0;entryDy=0;entryPerimeter=0;endArrow=none;endFill=0;" edge="1" parent="1" source="olscZ186BBC422VOPhtg-168" target="olscZ186BBC422VOPhtg-173">
          <mxGeometry x="660" y="310" as="geometry" />
        </mxCell>
        <mxCell id="olscZ186BBC422VOPhtg-178" style="edgeStyle=orthogonalEdgeStyle;curved=1;rounded=0;orthogonalLoop=1;jettySize=auto;html=1;exitX=0.5;exitY=0;exitDx=0;exitDy=0;endArrow=none;endFill=0;entryX=0.5;entryY=0;entryDx=0;entryDy=0;" edge="1" parent="1" source="olscZ186BBC422VOPhtg-157" target="olscZ186BBC422VOPhtg-173">
          <mxGeometry x="660" y="310" as="geometry">
            <mxPoint x="890" y="270" as="targetPoint" />
            <Array as="points">
              <mxPoint x="721" y="330" />
              <mxPoint x="1138" y="330" />
            </Array>
          </mxGeometry>
        </mxCell>
        <mxCell id="olscZ186BBC422VOPhtg-179" value="kubelet" style="rounded=1;whiteSpace=wrap;html=1;" vertex="1" parent="1">
          <mxGeometry x="1038" y="250" width="120" height="40" as="geometry" />
        </mxCell>
        <mxCell id="olscZ186BBC422VOPhtg-255" value="" style="group" vertex="1" connectable="0" parent="1">
          <mxGeometry x="50" y="1010" width="420" height="330" as="geometry" />
        </mxCell>
        <mxCell id="olscZ186BBC422VOPhtg-205" value="" style="rounded=0;whiteSpace=wrap;html=1;" vertex="1" parent="olscZ186BBC422VOPhtg-255">
          <mxGeometry width="420" height="330" as="geometry" />
        </mxCell>
        <mxCell id="olscZ186BBC422VOPhtg-206" value="" style="group" vertex="1" connectable="0" parent="olscZ186BBC422VOPhtg-255">
          <mxGeometry x="23" y="130" width="75" height="90" as="geometry" />
        </mxCell>
        <mxCell id="olscZ186BBC422VOPhtg-207" value="VPP-Agent" style="rounded=1;whiteSpace=wrap;html=1;" vertex="1" parent="olscZ186BBC422VOPhtg-206">
          <mxGeometry width="75" height="90" as="geometry" />
        </mxCell>
        <mxCell id="olscZ186BBC422VOPhtg-208" value="VPP1" style="text;html=1;strokeColor=none;fillColor=none;align=center;verticalAlign=middle;whiteSpace=wrap;rounded=0;" vertex="1" parent="olscZ186BBC422VOPhtg-206">
          <mxGeometry x="20.833333333333336" y="6" width="33.333333333333336" height="12" as="geometry" />
        </mxCell>
        <mxCell id="olscZ186BBC422VOPhtg-209" value="Pod1" style="text;html=1;strokeColor=none;fillColor=none;align=center;verticalAlign=middle;whiteSpace=wrap;rounded=0;" vertex="1" parent="olscZ186BBC422VOPhtg-206">
          <mxGeometry x="20.833333333333336" y="77.4" width="33.333333333333336" height="12" as="geometry" />
        </mxCell>
        <mxCell id="olscZ186BBC422VOPhtg-210" value="" style="group" vertex="1" connectable="0" parent="olscZ186BBC422VOPhtg-255">
          <mxGeometry x="162.5" y="130" width="75" height="90" as="geometry" />
        </mxCell>
        <mxCell id="olscZ186BBC422VOPhtg-211" value="VPP-Agent" style="rounded=1;whiteSpace=wrap;html=1;" vertex="1" parent="olscZ186BBC422VOPhtg-210">
          <mxGeometry width="75" height="90" as="geometry" />
        </mxCell>
        <mxCell id="olscZ186BBC422VOPhtg-212" value="VPP2" style="text;html=1;strokeColor=none;fillColor=none;align=center;verticalAlign=middle;whiteSpace=wrap;rounded=0;" vertex="1" parent="olscZ186BBC422VOPhtg-210">
          <mxGeometry x="20.833333333333336" y="6" width="33.333333333333336" height="12" as="geometry" />
        </mxCell>
        <mxCell id="olscZ186BBC422VOPhtg-213" value="Pod2" style="text;html=1;strokeColor=none;fillColor=none;align=center;verticalAlign=middle;whiteSpace=wrap;rounded=0;" vertex="1" parent="olscZ186BBC422VOPhtg-210">
          <mxGeometry x="20.833333333333336" y="77.39999999999999" width="33.333333333333336" height="12" as="geometry" />
        </mxCell>
        <mxCell id="olscZ186BBC422VOPhtg-214" value="" style="group" vertex="1" connectable="0" parent="olscZ186BBC422VOPhtg-255">
          <mxGeometry x="303" y="130" width="75" height="90" as="geometry" />
        </mxCell>
        <mxCell id="olscZ186BBC422VOPhtg-215" value="VPP-Agent" style="rounded=1;whiteSpace=wrap;html=1;" vertex="1" parent="olscZ186BBC422VOPhtg-214">
          <mxGeometry width="75" height="90" as="geometry" />
        </mxCell>
        <mxCell id="olscZ186BBC422VOPhtg-216" value="VPP3" style="text;html=1;strokeColor=none;fillColor=none;align=center;verticalAlign=middle;whiteSpace=wrap;rounded=0;" vertex="1" parent="olscZ186BBC422VOPhtg-214">
          <mxGeometry x="20.833333333333336" y="6" width="33.333333333333336" height="12" as="geometry" />
        </mxCell>
        <mxCell id="olscZ186BBC422VOPhtg-217" value="Pod3" style="text;html=1;strokeColor=none;fillColor=none;align=center;verticalAlign=middle;whiteSpace=wrap;rounded=0;" vertex="1" parent="olscZ186BBC422VOPhtg-214">
          <mxGeometry x="20.833333333333336" y="77.39999999999999" width="33.333333333333336" height="12" as="geometry" />
        </mxCell>
        <mxCell id="olscZ186BBC422VOPhtg-218" value="Contiv-vpp" style="rounded=1;whiteSpace=wrap;html=1;" vertex="1" parent="olscZ186BBC422VOPhtg-255">
          <mxGeometry x="15" y="250" width="370" height="60" as="geometry" />
        </mxCell>
        <mxCell id="olscZ186BBC422VOPhtg-219" value="" style="curved=1;endArrow=none;html=1;entryX=0.186;entryY=0;entryDx=0;entryDy=0;entryPerimeter=0;exitX=0.5;exitY=1;exitDx=0;exitDy=0;endFill=0;" edge="1" parent="olscZ186BBC422VOPhtg-255" source="olscZ186BBC422VOPhtg-207" target="olscZ186BBC422VOPhtg-218">
          <mxGeometry y="70" width="50" height="50" as="geometry">
            <mxPoint x="60" y="230" as="sourcePoint" />
            <mxPoint x="75" y="390" as="targetPoint" />
            <Array as="points">
              <mxPoint x="60" y="240" />
            </Array>
          </mxGeometry>
        </mxCell>
        <mxCell id="olscZ186BBC422VOPhtg-220" value="" style="curved=1;endArrow=none;html=1;entryX=0.819;entryY=0.014;entryDx=0;entryDy=0;entryPerimeter=0;exitX=0.5;exitY=1;exitDx=0;exitDy=0;endFill=0;" edge="1" parent="olscZ186BBC422VOPhtg-255" source="olscZ186BBC422VOPhtg-215" target="olscZ186BBC422VOPhtg-218">
          <mxGeometry y="70" width="50" height="50" as="geometry">
            <mxPoint x="335" y="220" as="sourcePoint" />
            <mxPoint x="358.81999999999994" y="260" as="targetPoint" />
            <Array as="points">
              <mxPoint x="340" y="240" />
            </Array>
          </mxGeometry>
        </mxCell>
        <mxCell id="olscZ186BBC422VOPhtg-221" style="edgeStyle=orthogonalEdgeStyle;curved=1;rounded=0;orthogonalLoop=1;jettySize=auto;html=1;entryX=0.5;entryY=0;entryDx=0;entryDy=0;exitX=0.5;exitY=1;exitDx=0;exitDy=0;endArrow=none;endFill=0;" edge="1" parent="olscZ186BBC422VOPhtg-255" source="olscZ186BBC422VOPhtg-211" target="olscZ186BBC422VOPhtg-218">
          <mxGeometry y="70" as="geometry">
            <mxPoint x="200" y="219" as="sourcePoint" />
          </mxGeometry>
        </mxCell>
        <mxCell id="olscZ186BBC422VOPhtg-229" value="kubelet" style="rounded=1;whiteSpace=wrap;html=1;" vertex="1" parent="olscZ186BBC422VOPhtg-255">
          <mxGeometry x="265" y="30" width="120" height="40" as="geometry" />
        </mxCell>
        <mxCell id="olscZ186BBC422VOPhtg-256" value="" style="group" vertex="1" connectable="0" parent="1">
          <mxGeometry x="510.5" y="1010" width="420" height="330" as="geometry" />
        </mxCell>
        <mxCell id="olscZ186BBC422VOPhtg-257" value="" style="rounded=0;whiteSpace=wrap;html=1;" vertex="1" parent="olscZ186BBC422VOPhtg-256">
          <mxGeometry width="420" height="330" as="geometry" />
        </mxCell>
        <mxCell id="olscZ186BBC422VOPhtg-258" value="" style="group" vertex="1" connectable="0" parent="olscZ186BBC422VOPhtg-256">
          <mxGeometry x="23" y="130" width="75" height="90" as="geometry" />
        </mxCell>
        <mxCell id="olscZ186BBC422VOPhtg-259" value="VPP-Agent" style="rounded=1;whiteSpace=wrap;html=1;" vertex="1" parent="olscZ186BBC422VOPhtg-258">
          <mxGeometry width="75" height="90" as="geometry" />
        </mxCell>
        <mxCell id="olscZ186BBC422VOPhtg-260" value="VPP1" style="text;html=1;strokeColor=none;fillColor=none;align=center;verticalAlign=middle;whiteSpace=wrap;rounded=0;" vertex="1" parent="olscZ186BBC422VOPhtg-258">
          <mxGeometry x="20.833333333333336" y="6" width="33.333333333333336" height="12" as="geometry" />
        </mxCell>
        <mxCell id="olscZ186BBC422VOPhtg-261" value="Pod1" style="text;html=1;strokeColor=none;fillColor=none;align=center;verticalAlign=middle;whiteSpace=wrap;rounded=0;" vertex="1" parent="olscZ186BBC422VOPhtg-258">
          <mxGeometry x="20.833333333333336" y="77.4" width="33.333333333333336" height="12" as="geometry" />
        </mxCell>
        <mxCell id="olscZ186BBC422VOPhtg-262" value="" style="group" vertex="1" connectable="0" parent="olscZ186BBC422VOPhtg-256">
          <mxGeometry x="162.5" y="130" width="75" height="90" as="geometry" />
        </mxCell>
        <mxCell id="olscZ186BBC422VOPhtg-263" value="VPP-Agent" style="rounded=1;whiteSpace=wrap;html=1;" vertex="1" parent="olscZ186BBC422VOPhtg-262">
          <mxGeometry width="75" height="90" as="geometry" />
        </mxCell>
        <mxCell id="olscZ186BBC422VOPhtg-264" value="VPP2" style="text;html=1;strokeColor=none;fillColor=none;align=center;verticalAlign=middle;whiteSpace=wrap;rounded=0;" vertex="1" parent="olscZ186BBC422VOPhtg-262">
          <mxGeometry x="20.833333333333336" y="6" width="33.333333333333336" height="12" as="geometry" />
        </mxCell>
        <mxCell id="olscZ186BBC422VOPhtg-265" value="Pod2" style="text;html=1;strokeColor=none;fillColor=none;align=center;verticalAlign=middle;whiteSpace=wrap;rounded=0;" vertex="1" parent="olscZ186BBC422VOPhtg-262">
          <mxGeometry x="20.833333333333336" y="77.39999999999999" width="33.333333333333336" height="12" as="geometry" />
        </mxCell>
        <mxCell id="olscZ186BBC422VOPhtg-266" value="" style="group" vertex="1" connectable="0" parent="olscZ186BBC422VOPhtg-256">
          <mxGeometry x="303" y="130" width="75" height="90" as="geometry" />
        </mxCell>
        <mxCell id="olscZ186BBC422VOPhtg-267" value="VPP-Agent" style="rounded=1;whiteSpace=wrap;html=1;" vertex="1" parent="olscZ186BBC422VOPhtg-266">
          <mxGeometry width="75" height="90" as="geometry" />
        </mxCell>
        <mxCell id="olscZ186BBC422VOPhtg-268" value="VPP3" style="text;html=1;strokeColor=none;fillColor=none;align=center;verticalAlign=middle;whiteSpace=wrap;rounded=0;" vertex="1" parent="olscZ186BBC422VOPhtg-266">
          <mxGeometry x="20.833333333333336" y="6" width="33.333333333333336" height="12" as="geometry" />
        </mxCell>
        <mxCell id="olscZ186BBC422VOPhtg-269" value="Pod3" style="text;html=1;strokeColor=none;fillColor=none;align=center;verticalAlign=middle;whiteSpace=wrap;rounded=0;" vertex="1" parent="olscZ186BBC422VOPhtg-266">
          <mxGeometry x="20.833333333333336" y="77.39999999999999" width="33.333333333333336" height="12" as="geometry" />
        </mxCell>
        <mxCell id="olscZ186BBC422VOPhtg-270" value="Contiv-vpp" style="rounded=1;whiteSpace=wrap;html=1;" vertex="1" parent="olscZ186BBC422VOPhtg-256">
          <mxGeometry x="15" y="250" width="370" height="60" as="geometry" />
        </mxCell>
        <mxCell id="olscZ186BBC422VOPhtg-271" value="" style="curved=1;endArrow=none;html=1;entryX=0.186;entryY=0;entryDx=0;entryDy=0;entryPerimeter=0;exitX=0.5;exitY=1;exitDx=0;exitDy=0;endFill=0;" edge="1" parent="olscZ186BBC422VOPhtg-256" source="olscZ186BBC422VOPhtg-259" target="olscZ186BBC422VOPhtg-270">
          <mxGeometry y="70" width="50" height="50" as="geometry">
            <mxPoint x="60" y="230" as="sourcePoint" />
            <mxPoint x="75" y="390" as="targetPoint" />
            <Array as="points">
              <mxPoint x="60" y="240" />
            </Array>
          </mxGeometry>
        </mxCell>
        <mxCell id="olscZ186BBC422VOPhtg-272" value="" style="curved=1;endArrow=none;html=1;entryX=0.819;entryY=0.014;entryDx=0;entryDy=0;entryPerimeter=0;exitX=0.5;exitY=1;exitDx=0;exitDy=0;endFill=0;" edge="1" parent="olscZ186BBC422VOPhtg-256" source="olscZ186BBC422VOPhtg-267" target="olscZ186BBC422VOPhtg-270">
          <mxGeometry y="70" width="50" height="50" as="geometry">
            <mxPoint x="335" y="220" as="sourcePoint" />
            <mxPoint x="358.81999999999994" y="260" as="targetPoint" />
            <Array as="points">
              <mxPoint x="340" y="240" />
            </Array>
          </mxGeometry>
        </mxCell>
        <mxCell id="olscZ186BBC422VOPhtg-273" style="edgeStyle=orthogonalEdgeStyle;curved=1;rounded=0;orthogonalLoop=1;jettySize=auto;html=1;entryX=0.5;entryY=0;entryDx=0;entryDy=0;exitX=0.5;exitY=1;exitDx=0;exitDy=0;endArrow=none;endFill=0;" edge="1" parent="olscZ186BBC422VOPhtg-256" source="olscZ186BBC422VOPhtg-263" target="olscZ186BBC422VOPhtg-270">
          <mxGeometry y="70" as="geometry">
            <mxPoint x="200" y="219" as="sourcePoint" />
          </mxGeometry>
        </mxCell>
        <mxCell id="olscZ186BBC422VOPhtg-274" value="kubelet" style="rounded=1;whiteSpace=wrap;html=1;" vertex="1" parent="olscZ186BBC422VOPhtg-256">
          <mxGeometry x="265" y="30" width="120" height="40" as="geometry" />
        </mxCell>
        <mxCell id="olscZ186BBC422VOPhtg-276" style="rounded=0;orthogonalLoop=1;jettySize=auto;html=1;exitX=0.145;exitY=1;exitDx=0;exitDy=-4.35;exitPerimeter=0;endArrow=none;endFill=0;" edge="1" parent="1" source="olscZ186BBC422VOPhtg-275" target="olscZ186BBC422VOPhtg-229">
          <mxGeometry relative="1" as="geometry" />
        </mxCell>
        <mxCell id="olscZ186BBC422VOPhtg-277" style="edgeStyle=none;rounded=0;orthogonalLoop=1;jettySize=auto;html=1;exitX=0.855;exitY=1;exitDx=0;exitDy=-4.35;exitPerimeter=0;entryX=0.5;entryY=0;entryDx=0;entryDy=0;endArrow=none;endFill=0;" edge="1" parent="1" source="olscZ186BBC422VOPhtg-275" target="olscZ186BBC422VOPhtg-274">
          <mxGeometry relative="1" as="geometry" />
        </mxCell>
        <mxCell id="olscZ186BBC422VOPhtg-275" value="ETCD" style="shape=cylinder3;whiteSpace=wrap;html=1;boundedLbl=1;backgroundOutline=1;size=15;" vertex="1" parent="1">
          <mxGeometry x="438" y="870" width="110" height="70" as="geometry" />
        </mxCell>
        <mxCell id="olscZ186BBC422VOPhtg-278" style="edgeStyle=orthogonalEdgeStyle;curved=1;rounded=0;orthogonalLoop=1;jettySize=auto;html=1;exitX=0.5;exitY=0;exitDx=0;exitDy=0;entryX=0;entryY=0.5;entryDx=0;entryDy=0;entryPerimeter=0;endArrow=none;endFill=0;dashed=1;" edge="1" parent="1" source="olscZ186BBC422VOPhtg-207" target="olscZ186BBC422VOPhtg-275">
          <mxGeometry relative="1" as="geometry" />
        </mxCell>
        <mxCell id="olscZ186BBC422VOPhtg-280" style="edgeStyle=orthogonalEdgeStyle;curved=1;rounded=0;orthogonalLoop=1;jettySize=auto;html=1;exitX=0.5;exitY=0;exitDx=0;exitDy=0;entryX=0;entryY=0.5;entryDx=0;entryDy=0;entryPerimeter=0;dashed=1;endArrow=none;endFill=0;" edge="1" parent="1" source="olscZ186BBC422VOPhtg-211" target="olscZ186BBC422VOPhtg-275">
          <mxGeometry relative="1" as="geometry" />
        </mxCell>
        <mxCell id="olscZ186BBC422VOPhtg-281" style="edgeStyle=orthogonalEdgeStyle;curved=1;rounded=0;orthogonalLoop=1;jettySize=auto;html=1;exitX=0.5;exitY=0;exitDx=0;exitDy=0;entryX=0.5;entryY=1;entryDx=0;entryDy=0;entryPerimeter=0;dashed=1;endArrow=none;endFill=0;" edge="1" parent="1" source="olscZ186BBC422VOPhtg-215" target="olscZ186BBC422VOPhtg-275">
          <mxGeometry relative="1" as="geometry">
            <Array as="points">
              <mxPoint x="450" y="1140" />
              <mxPoint x="450" y="940" />
            </Array>
          </mxGeometry>
        </mxCell>
        <mxCell id="olscZ186BBC422VOPhtg-282" style="edgeStyle=orthogonalEdgeStyle;curved=1;rounded=0;orthogonalLoop=1;jettySize=auto;html=1;exitX=0.5;exitY=0;exitDx=0;exitDy=0;entryX=0.5;entryY=1;entryDx=0;entryDy=0;entryPerimeter=0;dashed=1;endArrow=none;endFill=0;" edge="1" parent="1" source="olscZ186BBC422VOPhtg-259" target="olscZ186BBC422VOPhtg-275">
          <mxGeometry relative="1" as="geometry">
            <Array as="points">
              <mxPoint x="530" y="1140" />
              <mxPoint x="530" y="940" />
            </Array>
          </mxGeometry>
        </mxCell>
        <mxCell id="olscZ186BBC422VOPhtg-283" style="edgeStyle=orthogonalEdgeStyle;curved=1;rounded=0;orthogonalLoop=1;jettySize=auto;html=1;exitX=0.5;exitY=0;exitDx=0;exitDy=0;entryX=1;entryY=0.5;entryDx=0;entryDy=0;entryPerimeter=0;dashed=1;endArrow=none;endFill=0;" edge="1" parent="1" source="olscZ186BBC422VOPhtg-263" target="olscZ186BBC422VOPhtg-275">
          <mxGeometry relative="1" as="geometry" />
        </mxCell>
        <mxCell id="olscZ186BBC422VOPhtg-285" style="edgeStyle=orthogonalEdgeStyle;curved=1;rounded=0;orthogonalLoop=1;jettySize=auto;html=1;exitX=0.5;exitY=0;exitDx=0;exitDy=0;entryX=1;entryY=0.5;entryDx=0;entryDy=0;entryPerimeter=0;dashed=1;endArrow=none;endFill=0;" edge="1" parent="1" source="olscZ186BBC422VOPhtg-267" target="olscZ186BBC422VOPhtg-275">
          <mxGeometry relative="1" as="geometry" />
        </mxCell>
        <mxCell id="olscZ186BBC422VOPhtg-287" style="edgeStyle=none;rounded=0;orthogonalLoop=1;jettySize=auto;html=1;exitX=0.5;exitY=1;exitDx=0;exitDy=0;exitPerimeter=0;entryX=0.5;entryY=0;entryDx=0;entryDy=0;endArrow=none;endFill=0;" edge="1" parent="1" source="olscZ186BBC422VOPhtg-146" target="olscZ186BBC422VOPhtg-179">
          <mxGeometry relative="1" as="geometry" />
        </mxCell>
      </root>
    </mxGraphModel>
  </diagram>
</mxfile>
